<svg xmlns="http://www.w3.org/2000/svg" version="1.1" xmlns:xlink="http://www.w3.org/1999/xlink" xmlns:svgjs="http://svgjs.dev/svgjs" width="1500" height="1500" viewBox="0 0 1500 1500"><rect width="1500" height="1500" fill="#000000"></rect><g transform="matrix(0.6666666666666666,0,0,0.6666666666666666,249.39393939393938,636.0039872356376)"><svg viewBox="0 0 396 90" data-background-color="#ffffff" preserveAspectRatio="xMidYMid meet" height="340" width="1500" xmlns="http://www.w3.org/2000/svg" xmlns:xlink="http://www.w3.org/1999/xlink"><g id="tight-bounds" transform="matrix(1,0,0,1,0.2400000000000091,0.26314861139792356)"><svg viewBox="0 0 395.52 89.47372867334059" height="89.47372867334059" width="395.52"><g><svg viewBox="0 0 536.7495404391799 121.42238760820044" height="89.47372867334059" width="395.52"><g transform="matrix(1,0,0,1,0,43.9308748974943)"><svg viewBox="0 0 395.52 33.56063781321184" height="33.56063781321184" width="395.52"><g id="textblocktransform"><svg viewBox="0 0 395.52 33.56063781321184" height="33.56063781321184" width="395.52" id="textblock"><g><svg viewBox="0 0 395.52 33.56063781321184" height="33.56063781321184" width="395.52"><g transform="matrix(1,0,0,1,0,0)"><svg width="395.52" viewBox="2.55 -36.85 441.15999999999997 37.25000000000001" height="33.56063781321184" data-palette-color="#88450b"><path d="M12.75 0.4L12.75 0.4Q10.85 0.4 8.88 0.08 6.9-0.25 5.23-0.7 3.55-1.15 2.55-1.5L2.55-1.5 2.55-5.95 6.4-5Q8.45-4.25 9.88-3.95 11.3-3.65 13.15-3.65L13.15-3.65Q15.4-3.65 17.03-4.45 18.65-5.25 19.55-6.7 20.45-8.15 20.45-10L20.45-10Q20.45-11.75 19.7-12.85 18.95-13.95 17.7-14.63 16.45-15.3 14.93-15.78 13.4-16.25 11.8-16.8L11.8-16.8Q9.75-17.5 7.78-18.55 5.8-19.6 4.55-21.38 3.3-23.15 3.3-26.1L3.3-26.1Q3.3-29.05 4.67-31.35 6.05-33.65 8.55-34.95 11.05-36.25 14.45-36.25L14.45-36.25Q16.6-36.25 19.23-35.73 21.85-35.2 24.2-34.2L24.2-34.2 24.2-30.5 20.4-31.25Q18.8-31.7 17.23-31.95 15.65-32.2 14.45-32.2L14.45-32.2Q11.4-32.2 9.6-30.68 7.8-29.15 7.8-26.75L7.8-26.75Q7.8-24.65 9.08-23.5 10.35-22.35 12.33-21.65 14.3-20.95 16.4-20.2L16.4-20.2Q18.75-19.4 20.7-18.3 22.65-17.2 23.83-15.43 25-13.65 25-10.7L25-10.7Q25-7.55 23.53-5.03 22.05-2.5 19.33-1.05 16.6 0.4 12.75 0.4ZM20.85-26.75L20.1-31.75 24.2-30.5 24.2-25.95 21.9-25.95Q21.5-25.95 21.23-26.13 20.95-26.3 20.85-26.75L20.85-26.75ZM5.9-9.7L6.65-4.7 2.55-5.95 2.55-10.5 4.85-10.5Q5.25-10.5 5.55-10.33 5.85-10.15 5.9-9.7L5.9-9.7ZM38.15 0.4L38.15 0.4Q35.15 0.4 33.52-1.28 31.9-2.95 31.9-6.1L31.9-6.1 31.9-21.6 28.85-21.6Q28.45-21.6 28.17-21.85 27.9-22.1 27.9-22.6L27.9-22.6 27.9-24.35 32.05-24.9 33.1-32.7Q33.2-33.55 34.1-33.55L34.1-33.55 36.35-33.55 36.35-24.85 43.6-24.85 43.6-21.6 36.35-21.6 36.35-6.4Q36.35-4.8 37.12-4.03 37.9-3.25 39.15-3.25L39.15-3.25Q39.7-3.25 40.35-3.55 41-3.85 41.55-4.15 42.1-4.45 42.35-4.45L42.35-4.45Q42.7-4.45 42.95-4.05L42.95-4.05 44.25-1.9Q43.1-0.85 41.47-0.23 39.85 0.4 38.15 0.4ZM59.2 0.35L59.2 0.35Q55.55 0.35 52.82-1.3 50.1-2.95 48.6-6 47.1-9.05 47.1-13.2L47.1-13.2Q47.1-16.75 48.55-19.6 50-22.45 52.67-24.1 55.35-25.75 58.95-25.75L58.95-25.75Q62.09-25.75 64.45-24.35 66.8-22.95 68.12-20.43 69.45-17.9 69.45-14.4L69.45-14.4Q69.45-13.35 69.22-13 69-12.65 68.34-12.65L68.34-12.65 51.5-12.65Q51.5-12.5 51.5-12.33 51.5-12.15 51.5-12L51.5-12Q51.75-7.8 53.85-5.48 55.95-3.15 59.55-3.15L59.55-3.15Q61.1-3.15 62.62-3.78 64.15-4.4 65.32-5 66.5-5.6 67-5.6L67-5.6Q67.55-5.6 67.84-5.2L67.84-5.2 69.09-3.55Q68.09-2.25 66.42-1.38 64.75-0.5 62.84-0.08 60.95 0.35 59.2 0.35ZM51.65-15.45L51.65-15.45 65.45-15.45Q65.45-18.55 63.75-20.5 62.05-22.45 59.05-22.45L59.05-22.45Q55.8-22.45 53.95-20.6 52.1-18.75 51.65-15.45ZM81.04 0L76.54 0 76.54-21.55 73.74-21.85Q73.24-22 72.89-22.25 72.54-22.5 72.54-23L72.54-23 72.54-24.85 76.54-24.85 76.54-27.3Q76.54-31.6 78.89-33.98 81.24-36.35 85.24-36.35L85.24-36.35Q86.09-36.35 86.89-36.23 87.69-36.1 88.39-35.85L88.39-35.85 88.29-33.65Q88.24-33.2 88.02-33.08 87.79-32.95 87.44-32.95L87.44-32.95Q87.09-32.95 86.74-32.95 86.39-32.95 85.99-32.95L85.99-32.95Q83.49-32.95 82.19-31.58 80.89-30.2 80.89-27.15L80.89-27.15 80.89-24.85 88.19-24.85 88.19-21.6 81.04-21.6 81.04 0ZM78.04 0L72.94 0 72.94-2.05Q72.94-2.5 73.14-2.78 73.34-3.05 73.74-3.1L73.74-3.1 77.49-3.9 78.04 0ZM84.64 0L79.54 0 80.09-3.9 83.84-3.1Q84.24-3.05 84.44-2.78 84.64-2.5 84.64-2.05L84.64-2.05 84.64 0ZM99.59 0L95.09 0 95.09-21.55 92.29-21.85Q91.79-22 91.44-22.25 91.09-22.5 91.09-23L91.09-23 91.09-24.85 95.09-24.85 95.09-27.3Q95.09-31.6 97.44-33.98 99.79-36.35 103.79-36.35L103.79-36.35Q104.64-36.35 105.44-36.23 106.24-36.1 106.94-35.85L106.94-35.85 106.84-33.65Q106.79-33.2 106.57-33.08 106.34-32.95 105.99-32.95L105.99-32.95Q105.64-32.95 105.29-32.95 104.94-32.95 104.54-32.95L104.54-32.95Q102.04-32.95 100.74-31.58 99.44-30.2 99.44-27.15L99.44-27.15 99.44-24.85 106.74-24.85 106.74-21.6 99.59-21.6 99.59 0ZM96.59 0L91.49 0 91.49-2.05Q91.49-2.5 91.69-2.78 91.89-3.05 92.29-3.1L92.29-3.1 96.04-3.9 96.59 0ZM103.19 0L98.09 0 98.64-3.9 102.39-3.1Q102.79-3.05 102.99-2.78 103.19-2.5 103.19-2.05L103.19-2.05 103.19 0ZM117.69 0L113.24 0 113.24-25.35 117.69-25.35 117.69 0ZM114.74 0L109.64 0 109.64-2.05Q109.64-2.5 109.84-2.78 110.04-3.05 110.44-3.1L110.44-3.1 114.19-3.9 114.74 0ZM121.29 0L116.19 0 116.74-3.9 120.49-3.1Q120.89-3.05 121.09-2.78 121.29-2.5 121.29-2.05L121.29-2.05 121.29 0ZM109.64-25.35L114.74-25.35 114.19-21.45 110.44-22.25Q110.04-22.35 109.84-22.6 109.64-22.85 109.64-23.3L109.64-23.3 109.64-25.35ZM115.39-30.15L115.39-30.15Q114.14-30.15 113.19-31.1 112.24-32.05 112.24-33.3L112.24-33.3Q112.24-34.6 113.19-35.55 114.14-36.5 115.39-36.5L115.39-36.5Q116.69-36.5 117.64-35.55 118.59-34.6 118.59-33.3L118.59-33.3Q118.59-32.05 117.64-31.1 116.69-30.15 115.39-30.15ZM131.89 0.4L131.89 0.4Q130.09 0.4 127.86 0 125.64-0.4 124.04-1L124.04-1 124.04-4.7 126.24-4.2Q126.89-3.75 128.31-3.28 129.74-2.8 131.64-2.8L131.64-2.8Q134.49-2.8 135.84-3.98 137.19-5.15 137.19-6.85L137.19-6.85Q137.19-8.35 136.29-9.15 135.39-9.95 133.89-10.45 132.39-10.95 130.64-11.5L130.64-11.5Q128.84-12.1 127.34-12.9 125.84-13.7 124.94-14.98 124.04-16.25 124.04-18.2L124.04-18.2Q124.04-20.45 125.21-22.15 126.39-23.85 128.41-24.8 130.44-25.75 132.99-25.75L132.99-25.75Q134.44-25.75 136.21-25.4 137.99-25.05 140.09-24.35L140.09-24.35 140.09-21.35 137.44-21.7Q136.39-22 135.31-22.2 134.24-22.4 133.24-22.4L133.24-22.4Q131.79-22.4 130.66-21.95 129.54-21.5 128.89-20.7 128.24-19.9 128.24-18.85L128.24-18.85Q128.24-17.45 129.31-16.63 130.39-15.8 131.94-15.3 133.49-14.8 134.89-14.35L134.89-14.35Q136.54-13.85 138.01-13.05 139.49-12.25 140.44-10.95 141.39-9.65 141.39-7.55L141.39-7.55Q141.39-5.3 140.21-3.5 139.04-1.7 136.91-0.65 134.79 0.4 131.89 0.4ZM137.39-18.65L136.89-22.4 140.09-21.75 140.09-17.85 138.44-17.85Q137.94-17.85 137.69-18.07 137.44-18.3 137.39-18.65L137.39-18.65ZM126.74-6.8L127.24-3.05 124.04-3.7 124.04-7.6 125.69-7.6Q126.24-7.6 126.46-7.38 126.69-7.15 126.74-6.8L126.74-6.8ZM166.38 0L161.48 0 161.48-35.85 172.13-35.85Q176.43-35.85 179.41-34.55 182.38-33.25 183.93-30.78 185.48-28.3 185.48-24.75L185.48-24.75Q185.48-21.3 183.86-18.75 182.23-16.2 179.23-14.8 176.23-13.4 172.13-13.4L172.13-13.4 166.38-13.4 166.38 0ZM166.38-32L166.38-17.25 172.13-17.25Q174.78-17.25 176.68-18.18 178.58-19.1 179.61-20.78 180.63-22.45 180.63-24.75L180.63-24.75Q180.63-28.15 178.51-30.08 176.38-32 172.13-32L172.13-32 166.38-32ZM162.98 0L157.88 0 157.88-2.05Q157.88-2.5 158.08-2.78 158.28-3.05 158.68-3.1L158.68-3.1 162.43-3.9 162.98 0ZM157.88-35.85L162.98-35.85 162.43-31.95 158.68-32.75Q158.28-32.85 158.08-33.1 157.88-33.35 157.88-33.8L157.88-33.8 157.88-35.85ZM169.98 0L164.88 0 165.43-3.9 169.18-3.1Q169.58-3.05 169.78-2.78 169.98-2.5 169.98-2.05L169.98-2.05 169.98 0ZM194.38 0.4L194.38 0.4Q192.38 0.4 190.78-0.38 189.18-1.15 188.23-2.65 187.28-4.15 187.28-6.35L187.28-6.35Q187.28-7.85 188.1-9.22 188.93-10.6 190.78-11.7L190.78-11.7Q192.63-12.75 195.6-13.45 198.58-14.15 202.88-14.25L202.88-14.25 202.88-16.2Q202.88-19.15 201.6-20.68 200.33-22.2 197.88-22.2L197.88-22.2Q196.58-22.2 195.15-21.53 193.73-20.85 192.53-20.18 191.33-19.5 190.63-19.5L190.63-19.5Q190.18-19.5 189.85-19.75 189.53-20 189.33-20.35L189.33-20.35 188.53-21.75Q190.63-23.8 193.05-24.8 195.48-25.8 198.43-25.8L198.43-25.8Q201.28-25.8 203.23-24.6 205.18-23.4 206.2-21.25 207.23-19.1 207.23-16.2L207.23-16.2 207.23 0 205.28 0Q204.63 0 204.23-0.2 203.83-0.4 203.68-1.05L203.68-1.05 203.18-3.4Q201.18-1.6 199.18-0.6 197.18 0.4 194.38 0.4ZM195.68-2.75L195.68-2.75Q197.93-2.75 199.63-3.65 201.33-4.55 202.88-6.15L202.88-6.15 202.88-11.4Q200.28-11.35 198.18-11.03 196.08-10.7 194.6-10.13 193.13-9.55 192.35-8.68 191.58-7.8 191.58-6.55L191.58-6.55Q191.58-4.55 192.75-3.65 193.93-2.75 195.68-2.75ZM210.83 0L205.73 0 206.28-3.9 210.03-3.1Q210.43-3.05 210.63-2.78 210.83-2.5 210.83-2.05L210.83-2.05 210.83 0ZM220.93 0L216.48 0 216.48-25.35 219.13-25.35Q220.13-25.35 220.33-24.4L220.33-24.4 220.68-21.65Q222.33-23.5 224.38-24.63 226.43-25.75 229.08-25.75L229.08-25.75Q231.88-25.75 233.75-24.55 235.63-23.35 236.6-21.18 237.58-19 237.58-16.15L237.58-16.15 237.58 0 233.13 0 233.13-16.15Q233.13-19 231.8-20.6 230.48-22.2 227.78-22.2L227.78-22.2Q225.83-22.2 224.1-21.25 222.38-20.3 220.93-18.65L220.93-18.65 220.93 0ZM217.98 0L212.88 0 212.88-2.05Q212.88-2.5 213.08-2.78 213.28-3.05 213.68-3.1L213.68-3.1 217.43-3.9 217.98 0ZM224.53 0L219.43 0 219.98-3.9 223.73-3.1Q224.13-3.05 224.33-2.78 224.53-2.5 224.53-2.05L224.53-2.05 224.53 0ZM241.18 0L236.08 0 236.63-3.9 240.38-3.1Q240.78-3.05 240.98-2.78 241.18-2.5 241.18-2.05L241.18-2.05 241.18 0ZM212.88-25.35L217.98-25.35 217.43-21.45 213.68-22.25Q213.28-22.35 213.08-22.6 212.88-22.85 212.88-23.3L212.88-23.3 212.88-25.35ZM254.72 0.35L254.72 0.35Q251.42 0.35 248.9-1.28 246.37-2.9 244.95-5.85 243.52-8.8 243.52-12.7L243.52-12.7Q243.52-16.5 244.87-19.45 246.22-22.4 248.87-24.08 251.52-25.75 255.47-25.75L255.47-25.75Q257.02-25.75 259.07-25.23 261.12-24.7 262.97-23.95L262.97-23.95 262.97-21.25 260.37-21.4Q259.37-21.75 258.25-22 257.12-22.25 255.72-22.25L255.72-22.25Q253.17-22.25 251.5-21.08 249.82-19.9 248.97-17.75 248.12-15.6 248.12-12.7L248.12-12.7Q248.12-8.35 250.02-5.73 251.92-3.1 255.47-3.1L255.47-3.1Q257.42-3.1 258.67-3.73 259.92-4.35 260.72-4.98 261.52-5.6 261.97-5.6L261.97-5.6Q262.22-5.6 262.45-5.5 262.67-5.4 262.82-5.2L262.82-5.2 264.07-3.55Q262.42-1.55 259.97-0.6 257.52 0.35 254.72 0.35ZM260.27-18.15L259.77-21.9 262.97-21.25 262.97-17.35 261.32-17.35Q260.82-17.35 260.57-17.57 260.32-17.8 260.27-18.15L260.27-18.15ZM274.37 0.4L274.37 0.4Q272.37 0.4 270.77-0.38 269.17-1.15 268.22-2.65 267.27-4.15 267.27-6.35L267.27-6.35Q267.27-7.85 268.1-9.22 268.92-10.6 270.77-11.7L270.77-11.7Q272.62-12.75 275.6-13.45 278.57-14.15 282.87-14.25L282.87-14.25 282.87-16.2Q282.87-19.15 281.6-20.68 280.32-22.2 277.87-22.2L277.87-22.2Q276.57-22.2 275.15-21.53 273.72-20.85 272.52-20.18 271.32-19.5 270.62-19.5L270.62-19.5Q270.17-19.5 269.85-19.75 269.52-20 269.32-20.35L269.32-20.35 268.52-21.75Q270.62-23.8 273.05-24.8 275.47-25.8 278.42-25.8L278.42-25.8Q281.27-25.8 283.22-24.6 285.17-23.4 286.2-21.25 287.22-19.1 287.22-16.2L287.22-16.2 287.22 0 285.27 0Q284.62 0 284.22-0.2 283.82-0.4 283.67-1.05L283.67-1.05 283.17-3.4Q281.17-1.6 279.17-0.6 277.17 0.4 274.37 0.4ZM275.67-2.75L275.67-2.75Q277.92-2.75 279.62-3.65 281.32-4.55 282.87-6.15L282.87-6.15 282.87-11.4Q280.27-11.35 278.17-11.03 276.07-10.7 274.6-10.13 273.12-9.55 272.35-8.68 271.57-7.8 271.57-6.55L271.57-6.55Q271.57-4.55 272.75-3.65 273.92-2.75 275.67-2.75ZM290.82 0L285.72 0 286.27-3.9 290.02-3.1Q290.42-3.05 290.62-2.78 290.82-2.5 290.82-2.05L290.82-2.05 290.82 0ZM300.92 0L296.47 0 296.47-36.85 300.92-36.85 300.92-15.15 302.07-15.15Q302.57-15.15 302.92-15.3 303.27-15.45 303.62-15.85L303.62-15.85 311.62-24.45Q312.02-24.85 312.37-25.1 312.72-25.35 313.37-25.35L313.37-25.35 317.42-25.35 308.07-15.4Q307.72-15.05 307.39-14.7 307.07-14.35 306.62-14.1L306.62-14.1Q307.47-13.5 308.12-12.5L308.12-12.5 318.02 0 314.02 0Q313.47 0 313.12-0.23 312.77-0.45 312.37-0.9L312.37-0.9 304.02-11.25Q303.67-11.8 303.29-11.95 302.92-12.1 302.17-12.1L302.17-12.1 300.92-12.1 300.92 0ZM312.97-21.45L312.27-21.3 311.22-22.95 311.22-25.35 317.02-25.35 312.97-21.45ZM314.57-3.9L314.02 0 311.62-4.55 314.57-3.9ZM297.97 0L292.87 0 292.87-2.05Q292.87-2.5 293.07-2.78 293.27-3.05 293.67-3.1L293.67-3.1 297.42-3.9 297.97 0ZM304.52 0L299.42 0 299.97-3.9 303.72-3.1Q304.12-3.05 304.32-2.78 304.52-2.5 304.52-2.05L304.52-2.05 304.52 0ZM292.87-36.85L297.97-36.85 297.42-32.95 293.67-33.75Q293.27-33.85 293.07-34.1 292.87-34.35 292.87-34.8L292.87-34.8 292.87-36.85ZM312.42-25.35L317.52-25.35 317.52-23.3Q317.52-22.85 317.32-22.6 317.12-22.35 316.72-22.25L316.72-22.25 312.97-21.45 312.42-25.35ZM307.27-25.35L312.37-25.35 311.82-21.45 308.07-22.25Q307.67-22.35 307.47-22.6 307.27-22.85 307.27-23.3L307.27-23.3 307.27-25.35ZM319.12 0L314.02 0 314.57-3.9 318.32-3.1Q318.72-3.05 318.92-2.78 319.12-2.5 319.12-2.05L319.12-2.05 319.12 0ZM332.92 0.35L332.92 0.35Q329.26 0.35 326.54-1.3 323.81-2.95 322.31-6 320.81-9.05 320.81-13.2L320.81-13.2Q320.81-16.75 322.26-19.6 323.72-22.45 326.39-24.1 329.06-25.75 332.67-25.75L332.67-25.75Q335.81-25.75 338.17-24.35 340.51-22.95 341.84-20.43 343.17-17.9 343.17-14.4L343.17-14.4Q343.17-13.35 342.94-13 342.72-12.65 342.06-12.65L342.06-12.65 325.22-12.65Q325.22-12.5 325.22-12.33 325.22-12.15 325.22-12L325.22-12Q325.47-7.8 327.56-5.48 329.67-3.15 333.26-3.15L333.26-3.15Q334.81-3.15 336.34-3.78 337.87-4.4 339.04-5 340.22-5.6 340.72-5.6L340.72-5.6Q341.26-5.6 341.56-5.2L341.56-5.2 342.81-3.55Q341.81-2.25 340.14-1.38 338.47-0.5 336.56-0.08 334.67 0.35 332.92 0.35ZM325.37-15.45L325.37-15.45 339.17-15.45Q339.17-18.55 337.47-20.5 335.76-22.45 332.76-22.45L332.76-22.45Q329.51-22.45 327.67-20.6 325.81-18.75 325.37-15.45ZM368.01 0L363.11 0 363.11-35.85 368.01-35.85 368.01-19.85 387.31-19.85 387.31-35.85 392.21-35.85 392.21 0 387.31 0 387.31-16.3 368.01-16.3 368.01 0ZM364.61 0L359.51 0 359.51-2.05Q359.51-2.5 359.71-2.78 359.91-3.05 360.31-3.1L360.31-3.1 364.06-3.9 364.61 0ZM371.61 0L366.51 0 367.06-3.9 370.81-3.1Q371.21-3.05 371.41-2.78 371.61-2.5 371.61-2.05L371.61-2.05 371.61 0ZM359.51-35.85L364.61-35.85 364.06-31.95 360.31-32.75Q359.91-32.85 359.71-33.1 359.51-33.35 359.51-33.8L359.51-33.8 359.51-35.85ZM366.51-35.85L371.61-35.85 371.61-33.8Q371.61-33.35 371.41-33.1 371.21-32.85 370.81-32.75L370.81-32.75 367.06-31.95 366.51-35.85ZM388.76 0L383.66 0 383.66-2.05Q383.66-2.5 383.86-2.78 384.06-3.05 384.46-3.1L384.46-3.1 388.21-3.9 388.76 0ZM395.81 0L390.71 0 391.26-3.9 395.01-3.1Q395.41-3.05 395.61-2.78 395.81-2.5 395.81-2.05L395.81-2.05 395.81 0ZM383.66-35.85L388.76-35.85 388.21-31.95 384.46-32.75Q384.06-32.85 383.86-33.1 383.66-33.35 383.66-33.8L383.66-33.8 383.66-35.85ZM390.71-35.85L395.81-35.85 395.81-33.8Q395.81-33.35 395.61-33.1 395.41-32.85 395.01-32.75L395.01-32.75 391.26-31.95 390.71-35.85ZM409.86 0.4L409.86 0.4Q407.11 0.4 405.21-0.83 403.31-2.05 402.33-4.2 401.36-6.35 401.36-9.2L401.36-9.2 401.36-25.35 405.81-25.35 405.81-9.2Q405.81-6.3 407.13-4.73 408.46-3.15 411.16-3.15L411.16-3.15Q413.11-3.15 414.83-4.08 416.56-5 418.01-6.65L418.01-6.65 418.01-25.35 422.46-25.35 422.46 0 419.81 0Q418.81 0 418.61-0.95L418.61-0.95 418.26-3.65Q416.61-1.85 414.56-0.73 412.51 0.4 409.86 0.4ZM426.06 0L420.96 0 421.51-3.9 425.26-3.1Q425.66-3.05 425.86-2.78 426.06-2.5 426.06-2.05L426.06-2.05 426.06 0ZM397.76-25.35L402.86-25.35 402.31-21.45 398.56-22.25Q398.16-22.35 397.96-22.6 397.76-22.85 397.76-23.3L397.76-23.3 397.76-25.35ZM414.41-25.35L419.51-25.35 418.96-21.45 415.21-22.25Q414.81-22.35 414.61-22.6 414.41-22.85 414.41-23.3L414.41-23.3 414.41-25.35ZM437.61 0.4L437.61 0.4Q434.61 0.4 432.98-1.28 431.36-2.95 431.36-6.1L431.36-6.1 431.36-21.6 428.31-21.6Q427.91-21.6 427.63-21.85 427.36-22.1 427.36-22.6L427.36-22.6 427.36-24.35 431.51-24.9 432.56-32.7Q432.66-33.55 433.56-33.55L433.56-33.55 435.81-33.55 435.81-24.85 443.06-24.85 443.06-21.6 435.81-21.6 435.81-6.4Q435.81-4.8 436.58-4.03 437.36-3.25 438.61-3.25L438.61-3.25Q439.16-3.25 439.81-3.55 440.46-3.85 441.01-4.15 441.56-4.45 441.81-4.45L441.81-4.45Q442.16-4.45 442.41-4.05L442.41-4.05 443.71-1.9Q442.56-0.85 440.93-0.23 439.31 0.4 437.61 0.4Z" opacity="1" transform="matrix(1,0,0,1,0,0)" fill="#ffffff" class="wordmark-text-0" data-fill-palette-color="primary" id="text-0"></path></svg></g></svg></g></svg></g></svg></g><g transform="matrix(1,0,0,1,415.32715283097946,0)"><svg viewBox="0 0 121.42238760820044 121.42238760820044" height="121.42238760820044" width="121.42238760820044"><g><svg viewBox="0 0 121.42238760820044 121.42238760820044" height="121.42238760820044" width="121.42238760820044"><g transform="matrix(1,0,0,1,32.0916625822269,35.66909696347618)"><svg viewBox="0 0 57.23906244374663 50.084193681248074" height="50.084193681248074" width="57.23906244374663"><g><svg xmlns="http://www.w3.org/2000/svg" xmlns:xlink="http://www.w3.org/1999/xlink" version="1.1" x="0" y="0" viewBox="0.015 32.013999394078404 511.969 447.9730006059216" enable-background="new 0 0 512 512" xml:space="preserve" height="50.084193681248074" width="57.23906244374663" class="icon-dxe-0" data-fill-palette-color="accent" id="dxe-0"><g fill="#bb8e71" data-fill-palette-color="accent"><path d="M325.684 141.569C328.012 149.662 332.527 155.404 333.027 156.037V156.029A10.64 10.64 0 0 0 341.339 160.006C347.214 160.006 351.995 155.233 351.995 149.342 351.995 146.804 351.104 144.476 349.62 142.648H349.636C349.62 142.617 347.308 139.562 346.183 135.687 344.886 131.141 345.683 127.829 348.886 124.625 357.542 115.931 360.402 104.634 356.964 92.814 354.636 84.892 350.167 79.299 349.558 78.573V78.55L349.542 78.534V78.542A10.63 10.63 0 0 0 341.339 74.675C335.434 74.675 330.653 79.456 330.653 85.346 330.653 87.932 331.591 90.299 333.121 92.151 333.137 92.174 335.387 95.089 336.48 98.807 337.746 103.165 336.949 106.384 333.777 109.572 325.121 118.25 322.262 129.609 325.684 141.569" fill="#ffffff" data-fill-palette-color="accent"></path><path d="M237.517 134.663C240.689 146.608 246.821 154.896 247.509 155.795L247.517 155.787C249.47 158.349 252.54 160.006 256.001 160.006 261.892 160.006 266.665 155.233 266.665 149.342 266.665 146.913 265.845 144.679 264.485 142.89L264.493 142.882C264.446 142.827 260.22 137.038 258.134 129.18 255.454 119.11 257.368 110.564 263.993 103.072 275.375 90.19 279.014 74.379 274.484 57.356 271.312 45.412 265.18 37.123 264.493 36.224L264.477 36.232A10.62 10.62 0 0 0 256 32.014C250.11 32.014 245.336 36.786 245.336 42.677 245.336 45.091 246.141 47.302 247.484 49.091H247.476C247.523 49.153 251.968 55.192 254.015 63.41 256.468 73.245 254.507 81.597 248.008 88.947 236.618 101.829 232.986 117.641 237.517 134.663" fill="#ffffff" data-fill-palette-color="accent"></path><path d="M155.03 141.569C157.358 149.662 161.865 155.404 162.365 156.037L162.373 156.029A10.64 10.64 0 0 0 170.669 160.006C176.559 160.006 181.34 155.233 181.34 149.342 181.34 146.804 180.449 144.476 178.973 142.648 178.95 142.617 176.645 139.562 175.535 135.687 174.23 131.141 175.035 127.829 178.23 124.625 186.886 115.931 189.752 104.634 186.292 92.814 183.964 84.869 179.48 79.26 178.902 78.557L178.886 78.534 178.878 78.542A10.64 10.64 0 0 0 170.668 74.675C164.777 74.675 160.004 79.456 160.004 85.346 160.004 87.916 160.918 90.276 162.434 92.119L162.395 92.072C162.426 92.103 164.895 95.228 165.941 99.26 167.035 103.407 166.183 106.486 163.113 109.572 154.475 118.25 151.6 129.609 155.03 141.569M162.443 92.135A0.03 0.03 0 0 0 162.459 92.143V92.151z" fill="#ffffff" data-fill-palette-color="accent"></path><path d="M501.328 458.645H446.16A32 32 0 0 0 447.988 447.989C447.988 442.286 446.488 436.927 443.863 432.301 452.754 426.615 458.644 416.647 458.644 405.334 458.644 393.992 452.753 384.039 443.863 378.367A31.86 31.86 0 0 0 447.988 362.65C447.988 356.962 446.488 351.603 443.863 346.962 452.754 341.274 458.644 331.339 458.644 319.995S452.753 298.716 443.863 293.028A31.8 31.8 0 0 0 447.988 277.34C447.988 259.662 433.661 245.334 415.99 245.334H383.992C383.992 239.444 379.211 234.663 373.336 234.663H309.34V202.665H202.667V234.663H160.005C154.115 234.663 149.341 239.444 149.341 245.334H96.01C78.339 245.334 64.012 259.662 64.012 277.34 64.012 288.668 69.91 298.621 78.792 304.307 76.175 308.932 74.675 314.291 74.675 319.995S76.175 331.057 78.792 335.681C69.91 341.369 64.012 351.337 64.012 362.65 64.012 373.992 69.91 383.945 78.792 389.617A31.93 31.93 0 0 0 74.675 405.334C74.675 411.022 76.175 416.381 78.792 421.022 69.91 426.71 64.012 436.645 64.012 447.989 64.012 451.739 64.66 455.317 65.84 458.645H10.679C4.788 458.645 0.015 463.424 0.015 469.331 0.015 475.206 4.788 479.987 10.679 479.987H501.328C507.203 479.987 511.984 475.206 511.984 469.331 511.984 463.424 507.203 458.645 501.328 458.645M96.01 405.334C96.01 399.443 100.791 394.648 106.674 394.648H149.343V405.334C149.343 411.209 154.116 415.99 160.007 415.99S170.671 411.209 170.671 405.334V394.648H426.646C432.536 394.648 437.332 399.443 437.332 405.334 437.332 411.209 432.536 415.99 426.646 415.99H106.673C100.791 415.99 96.01 411.209 96.01 405.334M96.01 373.336C90.128 373.336 85.346 368.539 85.346 362.65 85.346 356.775 90.127 351.994 96.01 351.994H149.343V373.336zM96.01 319.996C96.01 314.121 100.791 309.34 106.674 309.34H149.343V330.652H106.674C100.791 330.652 96.01 325.871 96.01 319.996M426.646 309.34C432.536 309.34 437.332 314.121 437.332 319.996S432.536 330.652 426.646 330.652H298.654V309.34H362.65C362.65 315.215 367.43 319.996 373.336 319.996 379.211 319.996 383.992 315.215 383.992 309.34zM426.646 362.65C426.646 368.539 421.865 373.336 415.99 373.336H170.669V351.994H277.341V362.65C277.341 368.554 282.107 373.336 287.997 373.336S298.653 368.555 298.653 362.65V351.994H415.99C421.865 351.994 426.646 356.775 426.646 362.65M298.654 287.998V266.664H330.652C330.652 272.56 335.432 277.342 341.338 277.342 347.213 277.342 351.994 272.561 351.994 266.664H362.65V287.998zM277.342 287.998H234.666V266.664H277.342zM202.667 266.664H213.338V287.998H170.669V266.664zM213.338 309.34C213.338 315.215 218.111 319.996 224.002 319.996S234.666 315.215 234.666 309.34H277.342V330.652H170.669V309.34zM415.99 266.664C421.865 266.664 426.646 271.451 426.646 277.342 426.646 283.217 421.865 287.998 415.99 287.998H383.992V266.664zM224.002 224.002H287.998V245.336H224.002zM96.01 266.664H149.343V287.998H96.01C90.128 287.998 85.346 283.217 85.346 277.342 85.346 271.451 90.127 266.664 96.01 266.664M96.01 458.645C90.128 458.645 85.346 453.864 85.346 447.989S90.127 437.333 96.01 437.333H415.99C421.865 437.333 426.646 442.114 426.646 447.989S421.865 458.645 415.99 458.645z" fill="#ffffff" data-fill-palette-color="accent"></path></g></svg></g></svg></g><g id="text-0"><path d="M10.411 44.064v0c-0.106 0.328-0.245 0.657-0.415 0.986-0.168 0.322-0.338 0.616-0.51 0.881-0.173 0.271-0.32 0.483-0.44 0.636v0l-1.159-0.376 0.576-0.922c0.245-0.319 0.435-0.595 0.568-0.83 0.131-0.228 0.248-0.503 0.352-0.825v0c0.127-0.393 0.166-0.753 0.116-1.082-0.043-0.327-0.168-0.613-0.373-0.857-0.201-0.236-0.462-0.406-0.784-0.51v0c-0.303-0.098-0.571-0.114-0.806-0.048-0.237 0.073-0.448 0.196-0.633 0.371-0.193 0.179-0.372 0.392-0.537 0.637-0.169 0.237-0.347 0.478-0.533 0.724v0c-0.239 0.321-0.507 0.622-0.804 0.902-0.293 0.289-0.629 0.493-1.009 0.612-0.38 0.119-0.827 0.095-1.342-0.072v0c-0.515-0.167-0.932-0.437-1.252-0.811-0.328-0.369-0.534-0.81-0.618-1.32-0.086-0.504-0.032-1.056 0.162-1.654v0c0.121-0.373 0.3-0.774 0.539-1.202 0.238-0.428 0.511-0.82 0.818-1.175v0l0.975 0.316-0.525 0.929c-0.169 0.258-0.32 0.515-0.452 0.77-0.128 0.264-0.226 0.499-0.293 0.706v0c-0.173 0.534-0.179 1.002-0.016 1.402 0.162 0.401 0.452 0.669 0.87 0.805v0c0.367 0.119 0.687 0.098 0.959-0.063 0.27-0.154 0.523-0.385 0.758-0.693 0.233-0.302 0.476-0.614 0.73-0.937v0c0.269-0.368 0.555-0.692 0.858-0.97 0.304-0.279 0.643-0.471 1.019-0.577 0.374-0.099 0.818-0.066 1.333 0.101v0c0.547 0.177 1.001 0.466 1.362 0.868 0.354 0.399 0.584 0.875 0.689 1.428 0.097 0.558 0.036 1.174-0.183 1.85zM3.993 39.639l-1.366-0.229 0.675-0.965 1.188 0.384-0.197 0.609c-0.021 0.064-0.056 0.117-0.105 0.158-0.047 0.035-0.112 0.049-0.195 0.043zM7.187 44.994l1.375 0.232-0.675 0.965-1.197-0.387 0.194-0.599c0.023-0.071 0.059-0.127 0.107-0.168 0.051-0.048 0.116-0.062 0.196-0.043z" fill="#ffffff" data-fill-palette-color="accent"></path><path d="M13.407 36.775v0c-0.241 0.492-0.567 0.803-0.977 0.933-0.404 0.133-0.865 0.073-1.381-0.179v0l-3.828-1.876-0.371 0.756c-0.03 0.061-0.078 0.105-0.144 0.133-0.063 0.022-0.135 0.013-0.213-0.026v0l-0.438-0.214 0.364-1.088-1.793-1.207c-0.134-0.081-0.163-0.197-0.089-0.348v0l0.272-0.556 2.151 1.054 0.875-1.786 0.802 0.393-0.875 1.786 3.754 1.84c0.261 0.128 0.487 0.16 0.677 0.095 0.19-0.065 0.334-0.198 0.433-0.399v0c0.045-0.091 0.07-0.203 0.074-0.336 0.005-0.133 0.004-0.254-0.003-0.363-0.01-0.118-0.005-0.198 0.017-0.241v0c0.03-0.061 0.087-0.093 0.171-0.097v0l0.699-0.064c0.075 0.278 0.098 0.576 0.07 0.893-0.028 0.318-0.11 0.617-0.247 0.897z" fill="#ffffff" data-fill-palette-color="accent"></path><path d="M16.855 30.972v0c-0.369 0.559-0.816 0.965-1.34 1.219-0.53 0.25-1.104 0.334-1.721 0.25-0.616-0.074-1.243-0.322-1.881-0.742v0c-0.542-0.358-0.958-0.79-1.247-1.298-0.286-0.513-0.421-1.056-0.407-1.631 0.018-0.58 0.208-1.144 0.569-1.691v0c0.317-0.48 0.702-0.83 1.155-1.05 0.453-0.22 0.942-0.303 1.465-0.249 0.518 0.05 1.045 0.252 1.582 0.607v0c0.158 0.104 0.254 0.192 0.288 0.263 0.025 0.073 0.005 0.158-0.058 0.253v0l-2.555 3.871c0.023 0.015 0.048 0.032 0.077 0.051 0.028 0.019 0.054 0.035 0.076 0.05v0c0.67 0.385 1.289 0.534 1.857 0.447 0.568-0.087 1.033-0.404 1.394-0.952v0c0.157-0.237 0.265-0.506 0.326-0.806 0.057-0.295 0.1-0.562 0.129-0.803 0.023-0.244 0.059-0.403 0.107-0.476v0c0.056-0.085 0.13-0.129 0.222-0.134v0l0.571-0.036c0.097 0.283 0.129 0.596 0.097 0.94-0.042 0.345-0.123 0.685-0.245 1.017-0.132 0.335-0.285 0.635-0.461 0.9zM12.084 30.316v0l2.091-3.168c-0.474-0.313-0.944-0.437-1.409-0.371-0.471 0.062-0.857 0.322-1.159 0.78v0c-0.328 0.497-0.444 0.98-0.348 1.448 0.096 0.469 0.371 0.906 0.825 1.311z" fill="#ffffff" data-fill-palette-color="accent"></path><path d="M21.021 25.418l-0.814 0.933-4.465-3.897-0.568 0.527c-0.078 0.048-0.157 0.083-0.238 0.103-0.076 0.015-0.147-0.007-0.213-0.065v0l-0.382-0.334 0.72-0.825-0.512-0.447c-0.591-0.516-0.91-1.082-0.957-1.698-0.042-0.611 0.178-1.192 0.659-1.742v0c0.102-0.117 0.21-0.225 0.323-0.324 0.114-0.089 0.231-0.167 0.351-0.232v0l0.438 0.409c0.052 0.064 0.075 0.12 0.069 0.168-0.011 0.044-0.037 0.089-0.078 0.134v0c-0.044 0.051-0.087 0.099-0.126 0.146-0.044 0.051-0.091 0.104-0.141 0.16v0c-0.298 0.342-0.433 0.686-0.404 1.035 0.038 0.347 0.266 0.704 0.684 1.068v0l0.482 0.42 1.321-1.514 0.673 0.588-1.295 1.483zM20.481 26.037l-0.921 1.055-0.428-0.373c-0.061-0.053-0.098-0.108-0.112-0.165-0.014-0.066-0.001-0.127 0.038-0.183v0l0.512-0.926zM21.675 24.669l-0.921 1.055-0.71-0.822 0.842-0.626c0.054-0.052 0.113-0.072 0.176-0.062 0.062 0.001 0.124 0.028 0.185 0.081v0z" fill="#ffffff" data-fill-palette-color="accent"></path><path d="M25.347 21.093l-0.916 0.833-3.988-4.385-0.625 0.459c-0.083 0.039-0.166 0.064-0.248 0.074-0.077 0.006-0.145-0.024-0.204-0.089v0l-0.341-0.375 0.811-0.738-0.458-0.503c-0.528-0.581-0.78-1.179-0.755-1.796 0.029-0.612 0.314-1.163 0.854-1.655v0c0.115-0.105 0.235-0.2 0.359-0.284 0.123-0.076 0.248-0.139 0.375-0.191v0l0.388 0.457c0.045 0.069 0.061 0.127 0.049 0.175-0.016 0.042-0.047 0.084-0.092 0.125v0c-0.05 0.046-0.098 0.089-0.143 0.129-0.05 0.046-0.103 0.093-0.157 0.144v0c-0.335 0.305-0.509 0.632-0.521 0.981-0.002 0.35 0.183 0.73 0.556 1.14v0l0.431 0.473 1.486-1.352 0.601 0.661-1.457 1.324zM24.739 21.646l-1.036 0.942-0.383-0.421c-0.055-0.06-0.085-0.119-0.092-0.176-0.006-0.067 0.013-0.126 0.059-0.177v0l0.615-0.862zM26.083 20.423l-1.036 0.943-0.612-0.899 0.909-0.524c0.06-0.045 0.12-0.059 0.182-0.042 0.062 0.008 0.12 0.042 0.174 0.102v0z" fill="#ffffff" data-fill-palette-color="accent"></path><path d="M30.055 17.323l-0.99 0.726-4.123-5.622 0.99-0.727zM29.401 17.803l-1.13 0.828-0.336-0.458c-0.048-0.065-0.072-0.127-0.073-0.186 0.001-0.068 0.029-0.126 0.085-0.175v0l0.695-0.787zM30.857 16.734l-1.137 0.835-0.514-0.958 0.967-0.432c0.064-0.039 0.126-0.046 0.185-0.022 0.061 0.014 0.115 0.054 0.163 0.119v0zM24.148 13.009l1.129-0.828 0.514 0.957-0.959 0.426c-0.072 0.028-0.136 0.037-0.193 0.029-0.055-0.018-0.107-0.06-0.155-0.126v0zM24.644 11.009v0c-0.185 0.136-0.401 0.185-0.647 0.147-0.242-0.032-0.431-0.141-0.567-0.327v0c-0.144-0.196-0.195-0.415-0.153-0.655 0.038-0.246 0.149-0.437 0.335-0.573v0c0.191-0.14 0.409-0.191 0.655-0.153 0.236 0.036 0.427 0.153 0.571 0.349v0c0.136 0.185 0.186 0.396 0.149 0.633-0.038 0.246-0.152 0.439-0.343 0.579z" fill="#ffffff" data-fill-palette-color="accent"></path><path d="M34.317 14.781v0c-0.286 0.167-0.624 0.32-1.012 0.46-0.394 0.143-0.744 0.242-1.05 0.295v0l-0.511-0.877 0.592-0.193c0.14 0.012 0.347-0.01 0.619-0.067 0.266-0.053 0.552-0.169 0.856-0.346v0c0.45-0.262 0.729-0.55 0.836-0.863 0.101-0.31 0.074-0.599-0.083-0.867v0c-0.136-0.234-0.312-0.374-0.527-0.421-0.221-0.043-0.471-0.035-0.749 0.025-0.287 0.058-0.594 0.123-0.92 0.195v0c-0.341 0.073-0.669 0.116-0.983 0.127-0.305 0.013-0.591-0.04-0.856-0.159-0.256-0.117-0.474-0.33-0.655-0.641v0c-0.208-0.357-0.296-0.724-0.266-1.101 0.03-0.378 0.159-0.735 0.386-1.071 0.233-0.339 0.551-0.627 0.954-0.862v0c0.234-0.136 0.508-0.257 0.823-0.362 0.311-0.111 0.666-0.208 1.064-0.29v0l0.419 0.719-0.683 0.28c-0.191 0.049-0.384 0.106-0.58 0.173-0.187 0.07-0.359 0.15-0.516 0.243v0c-0.228 0.133-0.412 0.287-0.553 0.462-0.135 0.172-0.217 0.353-0.247 0.544-0.024 0.187 0.011 0.362 0.106 0.525v0c0.129 0.222 0.318 0.351 0.566 0.387 0.244 0.03 0.512 0.011 0.802-0.056 0.293-0.061 0.571-0.121 0.834-0.181v0c0.311-0.071 0.619-0.114 0.924-0.127 0.309-0.008 0.596 0.048 0.862 0.168 0.275 0.122 0.507 0.347 0.698 0.673v0c0.208 0.357 0.302 0.733 0.281 1.129-0.02 0.395-0.149 0.772-0.387 1.129-0.24 0.367-0.588 0.683-1.044 0.95zM32.987 9.495l-0.644-0.823 0.855-0.287 0.536 0.921-0.394 0.23c-0.076 0.044-0.145 0.061-0.206 0.049-0.061-0.011-0.11-0.041-0.147-0.09zM32.093 13.786l0.638 0.814-0.849 0.296-0.542-0.93 0.395-0.23c0.088-0.051 0.159-0.069 0.215-0.055 0.056 0.015 0.103 0.049 0.143 0.105z" fill="#ffffff" data-fill-palette-color="accent"></path><path d="M44.776 10.151l-1.295 0.381-2.779-9.455 2.813-0.827c0.753-0.221 1.426-0.296 2.019-0.223 0.593 0.073 1.089 0.286 1.489 0.641 0.401 0.355 0.692 0.844 0.876 1.467v0c0.179 0.61 0.192 1.181 0.038 1.713-0.16 0.534-0.467 1.001-0.92 1.402-0.453 0.401-1.04 0.708-1.761 0.92v0l-1.519 0.446zM42.294 1.709l1.145 3.895 1.519-0.447c0.467-0.137 0.843-0.336 1.126-0.595 0.288-0.268 0.477-0.574 0.566-0.918 0.096-0.346 0.084-0.723-0.036-1.131v0c-0.176-0.597-0.498-1.01-0.968-1.239-0.476-0.227-1.087-0.231-1.833-0.011v0zM43.881 10.414l-1.344 0.395-0.16-0.545c-0.023-0.078-0.025-0.144-0.006-0.199 0.024-0.063 0.067-0.108 0.13-0.134v0l0.93-0.506zM39.757 1.355l1.344-0.395 0.154 1.065-1.053 0.088c-0.071 0-0.132-0.018-0.184-0.052-0.046-0.036-0.08-0.093-0.103-0.17v0zM45.731 9.87l-1.354 0.398-0.157-1.075 1.056-0.078c0.073-0.015 0.134-0.001 0.181 0.042 0.052 0.034 0.09 0.09 0.113 0.168v0z" fill="#ffffff" data-fill-palette-color="accent"></path><path d="M53.12 8.33v0c-0.362 0.047-0.697 0.019-1.004-0.085-0.313-0.103-0.572-0.281-0.775-0.534-0.209-0.246-0.34-0.57-0.392-0.972v0c-0.036-0.275 0.004-0.546 0.12-0.814 0.115-0.267 0.331-0.524 0.647-0.769v0c0.311-0.231 0.727-0.445 1.247-0.643 0.527-0.198 1.178-0.357 1.955-0.478v0l-0.069-0.533c-0.069-0.537-0.236-0.928-0.5-1.174-0.271-0.251-0.628-0.348-1.071-0.291v0c-0.235 0.03-0.475 0.126-0.721 0.288-0.239 0.154-0.462 0.305-0.667 0.454-0.198 0.155-0.361 0.241-0.489 0.258v0c-0.087 0.011-0.161-0.003-0.22-0.043-0.066-0.039-0.124-0.086-0.172-0.142v0l-0.261-0.355c0.334-0.425 0.707-0.757 1.12-0.994 0.419-0.238 0.897-0.392 1.434-0.462v0c0.517-0.067 0.967-0.016 1.35 0.153 0.384 0.175 0.696 0.446 0.934 0.81 0.232 0.366 0.382 0.814 0.45 1.344v0l0.572 4.418-0.534 0.07c-0.114 0.015-0.21 0.01-0.288-0.014-0.079-0.031-0.139-0.101-0.181-0.212v0l-0.214-0.628c-0.326 0.377-0.659 0.679-0.998 0.907-0.339 0.228-0.763 0.375-1.273 0.441zM53.36 7.419v0c0.409-0.053 0.758-0.18 1.046-0.381 0.288-0.201 0.554-0.467 0.797-0.799v0l-0.185-1.429c-0.469 0.067-0.891 0.156-1.265 0.266-0.375 0.11-0.689 0.236-0.944 0.378-0.255 0.135-0.443 0.293-0.563 0.472-0.12 0.179-0.165 0.383-0.136 0.611v0c0.047 0.362 0.188 0.61 0.424 0.744 0.236 0.133 0.511 0.179 0.826 0.138zM57.594 7.639l-1.389 0.18 0.013-1.087 1.045 0.09c0.075-0.003 0.132 0.02 0.173 0.07 0.046 0.042 0.075 0.103 0.085 0.183v0z" fill="#ffffff" data-fill-palette-color="accent"></path><path d="M61.226 7.707l-1.227-0.042 0.236-6.968 0.731 0.025c0.183 0.006 0.291 0.098 0.326 0.275v0l0.065 0.753c0.316-0.328 0.666-0.587 1.052-0.776 0.379-0.197 0.812-0.287 1.299-0.271v0c0.514 0.017 0.939 0.144 1.277 0.379 0.331 0.228 0.581 0.544 0.749 0.949 0.162 0.405 0.235 0.868 0.217 1.389v0l-0.151 4.442-1.217-0.041 0.151-4.443c0.018-0.521-0.09-0.931-0.324-1.229-0.233-0.306-0.597-0.467-1.09-0.484v0c-0.358-0.012-0.699 0.064-1.023 0.229-0.324 0.165-0.623 0.395-0.897 0.691v0zM60.414 7.679l-1.399-0.048 0.019-0.568c0.003-0.081 0.022-0.145 0.057-0.191 0.042-0.053 0.101-0.081 0.176-0.085v0l1.032-0.188zM62.22 7.74l-1.41-0.047 0.189-1.07 1.027 0.258c0.074 0.009 0.127 0.042 0.159 0.097 0.039 0.049 0.057 0.114 0.054 0.194v0zM66.794 7.896l-1.399-0.048 0.178-1.07 1.027 0.258c0.074 0.009 0.127 0.042 0.159 0.097 0.039 0.049 0.057 0.114 0.055 0.195v0zM59.252 0.663l1.399 0.048-0.188 1.07-1.017-0.258c-0.074-0.023-0.13-0.055-0.17-0.097-0.032-0.048-0.047-0.113-0.044-0.195v0z" fill="#ffffff" data-fill-palette-color="accent"></path><path d="M71.317 8.813v0c-0.598-0.113-1.096-0.359-1.492-0.737-0.403-0.379-0.681-0.859-0.832-1.439-0.16-0.574-0.173-1.214-0.039-1.918v0c0.13-0.685 0.368-1.27 0.715-1.755 0.34-0.486 0.778-0.834 1.313-1.042 0.537-0.215 1.161-0.255 1.872-0.12v0c0.279 0.053 0.592 0.164 0.939 0.333 0.355 0.164 0.685 0.344 0.993 0.54v0l-0.139 0.727-0.69-0.172c-0.168-0.094-0.351-0.184-0.548-0.269-0.191-0.084-0.412-0.15-0.665-0.199v0c-0.459-0.087-0.861-0.053-1.207 0.102-0.339 0.156-0.622 0.412-0.848 0.769-0.226 0.357-0.389 0.797-0.489 1.322v0c-0.149 0.784-0.098 1.445 0.151 1.981 0.256 0.538 0.703 0.867 1.342 0.988v0c0.352 0.067 0.652 0.065 0.899-0.005 0.241-0.071 0.445-0.15 0.613-0.235 0.168-0.085 0.291-0.12 0.371-0.105v0c0.047 0.009 0.088 0.027 0.124 0.054 0.036 0.028 0.064 0.06 0.085 0.099v0l0.254 0.513c-0.367 0.302-0.787 0.498-1.258 0.588-0.477 0.082-0.965 0.075-1.464-0.019zM73.761 4.102l0.051-1.034 0.835 0.334-0.2 1.057-0.449-0.085c-0.086-0.016-0.149-0.049-0.188-0.097-0.039-0.049-0.055-0.107-0.049-0.175z" fill="#ffffff" data-fill-palette-color="accent"></path><path d="M77.375 10.471v0c-0.345-0.12-0.632-0.295-0.86-0.525-0.234-0.232-0.386-0.507-0.454-0.824-0.077-0.313-0.049-0.662 0.084-1.045v0c0.091-0.262 0.248-0.487 0.471-0.674 0.223-0.188 0.531-0.32 0.923-0.399v0c0.382-0.068 0.849-0.073 1.403-0.017 0.56 0.059 1.214 0.207 1.961 0.446v0l0.177-0.508c0.178-0.511 0.204-0.936 0.078-1.273-0.13-0.346-0.406-0.593-0.828-0.74v0c-0.224-0.078-0.481-0.099-0.773-0.064-0.283 0.031-0.55 0.067-0.801 0.108-0.247 0.05-0.431 0.054-0.552 0.012v0c-0.083-0.029-0.142-0.075-0.178-0.137-0.042-0.065-0.072-0.133-0.09-0.204v0l-0.075-0.434c0.489-0.231 0.971-0.361 1.446-0.389 0.482-0.026 0.978 0.05 1.49 0.229v0c0.492 0.171 0.872 0.418 1.139 0.74 0.265 0.329 0.423 0.709 0.473 1.142 0.044 0.431-0.022 0.898-0.198 1.403v0l-1.464 4.208-0.508-0.177c-0.109-0.038-0.193-0.085-0.251-0.141-0.057-0.063-0.079-0.153-0.068-0.27v0l0.089-0.657c-0.46 0.191-0.893 0.313-1.298 0.365-0.405 0.052-0.85-0.006-1.336-0.175zM77.997 9.764v0c0.39 0.136 0.758 0.178 1.106 0.126 0.347-0.051 0.704-0.171 1.07-0.358v0l0.474-1.361c-0.45-0.149-0.866-0.258-1.251-0.328-0.384-0.069-0.722-0.097-1.013-0.084-0.289 0.007-0.527 0.064-0.715 0.171-0.188 0.107-0.319 0.269-0.395 0.486v0c-0.12 0.345-0.104 0.63 0.047 0.854 0.151 0.225 0.377 0.389 0.677 0.494zM81.687 11.853l-1.323-0.46 0.497-0.966 0.895 0.547c0.068 0.031 0.109 0.077 0.123 0.14 0.023 0.058 0.021 0.125-0.006 0.202v0z" fill="#ffffff" data-fill-palette-color="accent"></path><path d="M84.925 13.534l-1.082-0.58 4.791-8.924 1.082 0.581-2.823 5.257 0.277 0.149c0.083 0.045 0.16 0.067 0.23 0.066 0.072 0.008 0.151-0.003 0.237-0.034v0l3.059-1.042c0.101-0.03 0.189-0.052 0.265-0.065 0.082-0.01 0.174 0.013 0.275 0.067v0l0.984 0.528-3.558 1.2c-0.088 0.022-0.175 0.048-0.261 0.079-0.076 0.028-0.165 0.042-0.265 0.042v0c0.092 0.172 0.145 0.366 0.16 0.581v0l0.769 4.318-0.965-0.519c-0.089-0.048-0.151-0.104-0.186-0.168-0.04-0.068-0.074-0.155-0.102-0.262v0l-0.672-3.598c-0.006-0.118-0.035-0.207-0.087-0.265-0.047-0.056-0.13-0.116-0.249-0.18v0l-0.304-0.163zM90.638 9.909l-0.189-0.056-0.043-0.541 0.312-0.581 1.404 0.753zM88.743 14.363l-0.643 0.875 0.009-1.411zM84.21 13.15l-1.234-0.662 0.269-0.501c0.038-0.072 0.084-0.12 0.136-0.146 0.061-0.028 0.126-0.028 0.195 0.002v0l1.009 0.288zM85.802 14.005l-1.243-0.667 0.643-0.876 0.806 0.686c0.062 0.041 0.096 0.094 0.1 0.157 0.013 0.061 0.001 0.127-0.038 0.199v0zM87.766 3.564l1.234 0.663-0.638 0.866-0.802-0.672c-0.056-0.053-0.091-0.11-0.104-0.171-0.007-0.058 0.008-0.122 0.046-0.194v0zM91.013 8.889l1.234 0.662-0.269 0.501c-0.038 0.072-0.087 0.119-0.145 0.141-0.049 0.02-0.111 0.021-0.186 0.004v0l-1.009-0.288zM89.761 8.217l1.234 0.662-0.643 0.876-0.798-0.681c-0.056-0.053-0.089-0.106-0.099-0.158-0.013-0.061-0.001-0.127 0.037-0.198v0zM89.334 15.901l-1.234-0.663 0.643-0.875 0.806 0.686c0.056 0.038 0.09 0.09 0.1 0.157 0.007 0.058-0.008 0.122-0.047 0.194v0z" fill="#ffffff" data-fill-palette-color="accent"></path><path d="M93.059 18.764v0c-0.536-0.401-0.916-0.871-1.138-1.409-0.219-0.544-0.268-1.121-0.148-1.733 0.11-0.61 0.394-1.222 0.852-1.834v0c0.389-0.52 0.845-0.91 1.369-1.169 0.529-0.255 1.079-0.359 1.652-0.31 0.578 0.052 1.13 0.275 1.655 0.667v0c0.461 0.344 0.787 0.749 0.979 1.215 0.193 0.465 0.247 0.958 0.163 1.477-0.081 0.514-0.313 1.029-0.699 1.544v0c-0.113 0.152-0.207 0.242-0.28 0.272-0.074 0.02-0.158-0.004-0.249-0.073v0l-3.714-2.778c-0.016 0.022-0.034 0.046-0.055 0.073-0.02 0.027-0.038 0.051-0.054 0.074v0c-0.424 0.646-0.609 1.255-0.556 1.827 0.053 0.572 0.343 1.055 0.868 1.448v0c0.228 0.17 0.49 0.294 0.786 0.373 0.291 0.074 0.556 0.133 0.794 0.175 0.242 0.038 0.399 0.083 0.469 0.136v0c0.081 0.061 0.121 0.137 0.12 0.229v0l0.003 0.572c-0.288 0.08-0.603 0.094-0.944 0.042-0.342-0.062-0.676-0.164-1.001-0.305-0.326-0.151-0.617-0.322-0.872-0.513zM93.995 14.04v0l3.04 2.274c0.34-0.455 0.491-0.917 0.453-1.385-0.034-0.474-0.271-0.874-0.71-1.203v0c-0.477-0.357-0.952-0.501-1.426-0.433-0.474 0.068-0.926 0.317-1.357 0.747z" fill="#ffffff" data-fill-palette-color="accent"></path><path d="M101.347 26.72l-0.824-1.069 7.808-6.013 0.824 1.07-3.482 2.681 3.238 4.205 3.482-2.681 0.824 1.069-7.808 6.013-0.824-1.07 3.554-2.736-3.238-4.206zM100.777 25.98l-0.854-1.109 0.45-0.347c0.064-0.05 0.126-0.075 0.184-0.078 0.068-0.001 0.125 0.023 0.171 0.073v0l0.809 0.684zM101.954 27.508l-0.861-1.118 0.945-0.535 0.455 0.956c0.04 0.063 0.049 0.125 0.027 0.184-0.013 0.061-0.051 0.116-0.116 0.166v0zM107.731 18.858l0.854 1.11-0.937 0.529-0.463-0.95c-0.025-0.066-0.031-0.13-0.019-0.19 0.017-0.056 0.057-0.108 0.122-0.158v0zM108.901 20.378l0.86 1.118-0.442 0.34c-0.064 0.05-0.128 0.073-0.19 0.07-0.058 0.002-0.118-0.02-0.179-0.067v0l-0.801-0.69zM104.827 31.239l-0.855-1.11 0.451-0.346c0.064-0.05 0.126-0.075 0.183-0.078 0.068-0.001 0.127 0.026 0.178 0.081v0l0.802 0.676zM106.01 32.775l-0.855-1.11 0.945-0.536 0.455 0.957c0.036 0.058 0.045 0.119 0.027 0.184-0.017 0.056-0.057 0.108-0.122 0.158v0zM111.78 24.117l0.855 1.11-0.938 0.529-0.456-0.942c-0.029-0.071-0.038-0.138-0.025-0.199 0.017-0.056 0.057-0.108 0.122-0.158v0zM112.963 25.653l0.854 1.109-0.442 0.341c-0.064 0.05-0.126 0.075-0.184 0.077-0.062-0.003-0.122-0.026-0.179-0.066v0l-0.801-0.691z" fill="#ffffff" data-fill-palette-color="accent"></path><path d="M107.986 36.923v0c-0.225-0.455-0.313-0.887-0.265-1.295 0.054-0.411 0.216-0.786 0.486-1.123 0.274-0.331 0.645-0.612 1.112-0.843v0l3.986-1.968 0.539 1.092-3.986 1.968c-0.473 0.234-0.786 0.524-0.939 0.871-0.153 0.347-0.12 0.742 0.098 1.185v0c0.159 0.322 0.384 0.587 0.677 0.798 0.292 0.21 0.634 0.366 1.023 0.468v0l4.614-2.277 0.539 1.092-6.252 3.085-0.319-0.646c-0.084-0.17-0.054-0.309 0.088-0.417v0l0.624-0.41c-0.432-0.126-0.823-0.314-1.172-0.564-0.353-0.241-0.637-0.58-0.853-1.016zM110.058 40.868l-0.62-1.256 1.032-0.339 0.254 1.018c0.027 0.07 0.025 0.135-0.006 0.195-0.027 0.051-0.078 0.095-0.15 0.131v0zM112.865 30.802l0.62 1.256-1.032 0.34-0.254-1.018c-0.015-0.076-0.011-0.138 0.01-0.186 0.025-0.057 0.073-0.104 0.146-0.14v0zM114.891 34.907l0.62 1.256-1.028 0.348-0.258-1.027c-0.015-0.076-0.011-0.138 0.01-0.186 0.025-0.057 0.073-0.104 0.146-0.14v0z" fill="#ffffff" data-fill-palette-color="accent"></path><path d="M111.291 44.79v0c-0.173-0.52-0.158-0.97 0.044-1.351 0.195-0.378 0.566-0.658 1.111-0.84v0l4.046-1.342-0.266-0.8c-0.021-0.064-0.018-0.129 0.01-0.196 0.03-0.06 0.087-0.104 0.17-0.131v0l0.463-0.153 0.502 1.03 2.125-0.395c0.152-0.036 0.255 0.026 0.308 0.187v0l0.195 0.587-2.273 0.755 0.627 1.888-0.848 0.281-0.626-1.888-3.969 1.317c-0.276 0.092-0.459 0.227-0.549 0.407-0.09 0.18-0.1 0.375-0.03 0.587v0c0.032 0.096 0.093 0.194 0.183 0.293 0.09 0.099 0.175 0.184 0.256 0.257 0.09 0.077 0.142 0.138 0.157 0.183v0c0.021 0.064 0.003 0.127-0.055 0.189v0l-0.453 0.536c-0.248-0.146-0.473-0.342-0.676-0.589-0.203-0.246-0.353-0.517-0.452-0.812z" fill="#ffffff" data-fill-palette-color="accent"></path><path d="M3.514 80.282v0c-0.111-0.341-0.195-0.698-0.252-1.07-0.057-0.373-0.097-0.723-0.118-1.05-0.013-0.323-0.016-0.585-0.011-0.787v0l1.197-0.389 0.075 1.117c-0.016 0.411-0.007 0.753 0.025 1.027 0.032 0.274 0.102 0.575 0.209 0.904v0c0.132 0.405 0.316 0.73 0.552 0.973 0.236 0.243 0.512 0.403 0.827 0.477 0.31 0.077 0.629 0.062 0.957-0.044v0c0.315-0.103 0.551-0.254 0.706-0.454 0.151-0.192 0.251-0.42 0.3-0.685 0.049-0.265 0.07-0.549 0.064-0.853-0.004-0.297-0.002-0.608 0.007-0.931v0c0.003-0.406 0.04-0.817 0.111-1.232 0.078-0.417 0.239-0.786 0.483-1.107 0.242-0.328 0.63-0.579 1.164-0.752v0c0.528-0.172 1.037-0.202 1.528-0.092 0.491 0.11 0.926 0.353 1.304 0.728 0.378 0.375 0.666 0.865 0.863 1.47v0c0.126 0.386 0.22 0.829 0.283 1.327 0.056 0.501 0.064 0.993 0.021 1.477v0l-0.994 0.323-0.13-1.089c-0.017-0.315-0.048-0.618-0.093-0.909-0.047-0.298-0.106-0.556-0.178-0.774v0c-0.178-0.547-0.454-0.937-0.829-1.171-0.381-0.232-0.784-0.278-1.209-0.14v0c-0.38 0.124-0.635 0.335-0.765 0.633-0.133 0.292-0.202 0.635-0.209 1.029-0.013 0.396-0.026 0.805-0.038 1.229v0c-0.005 0.464-0.051 0.903-0.138 1.315-0.078 0.417-0.244 0.78-0.498 1.09-0.246 0.315-0.633 0.558-1.161 0.73v0c-0.566 0.184-1.117 0.218-1.653 0.101-0.536-0.117-1.016-0.377-1.439-0.78-0.416-0.405-0.737-0.952-0.961-1.641zM11.516 80.079l1.279-0.63 0.02 1.21-1.225 0.399-0.201-0.617c-0.023-0.071-0.027-0.137-0.012-0.199 0.015-0.062 0.062-0.116 0.139-0.163zM5.626 77.556l-1.276 0.64-0.02-1.21 1.216-0.396 0.201 0.617c0.023 0.071 0.028 0.14 0.014 0.209-0.009 0.06-0.054 0.107-0.135 0.14z" fill="#ffffff" data-fill-palette-color="accent"></path><path d="M6.911 88.526v0.001c-0.248-0.504-0.299-0.961-0.155-1.372 0.148-0.42 0.489-0.761 1.024-1.024v0l3.925-1.93-0.377-0.765c-0.036-0.073-0.043-0.141-0.021-0.205 0.019-0.069 0.07-0.125 0.155-0.167v0l0.447-0.219 0.656 0.989 2.106-0.708c0.155-0.053 0.269-0.004 0.344 0.148v0l0.278 0.564-2.204 1.084 0.905 1.84-0.829 0.407-0.905-1.839-3.852 1.895c-0.267 0.131-0.435 0.297-0.503 0.496-0.071 0.193-0.054 0.396 0.051 0.608v0c0.048 0.097 0.126 0.187 0.234 0.269 0.102 0.085 0.203 0.16 0.303 0.225 0.093 0.067 0.15 0.122 0.171 0.164v0c0.03 0.061 0.022 0.129-0.024 0.204v0l-0.385 0.597c-0.272-0.108-0.529-0.271-0.773-0.491-0.238-0.222-0.428-0.479-0.571-0.771z" fill="#ffffff" data-fill-palette-color="accent"></path><path d="M10.841 95.085v0c-0.377-0.57-0.577-1.155-0.601-1.756-0.024-0.601 0.125-1.178 0.448-1.732 0.323-0.554 0.809-1.046 1.458-1.475v0c0.559-0.369 1.14-0.588 1.744-0.655 0.595-0.069 1.162 0.022 1.702 0.273 0.536 0.246 0.99 0.651 1.364 1.216v0c0.328 0.497 0.504 1.001 0.526 1.513 0.026 0.518-0.089 1.012-0.346 1.482-0.263 0.474-0.668 0.892-1.215 1.254v0c-0.164 0.108-0.287 0.161-0.369 0.159-0.079 0.003-0.152-0.046-0.219-0.147v0l-2.626-3.97c-0.023 0.015-0.048 0.032-0.076 0.05-0.028 0.019-0.054 0.035-0.076 0.051v0c-0.634 0.476-1.026 0.999-1.177 1.569-0.141 0.572-0.025 1.14 0.349 1.704v0c0.16 0.243 0.369 0.454 0.625 0.633 0.253 0.174 0.489 0.322 0.708 0.444 0.215 0.117 0.349 0.215 0.401 0.294v0c0.06 0.09 0.073 0.179 0.041 0.265v0l-0.193 0.554c-0.308-0.024-0.62-0.121-0.936-0.293-0.307-0.17-0.593-0.382-0.859-0.637-0.266-0.254-0.49-0.52-0.673-0.796zM13.39 90.844v0l2.15 3.251c0.485-0.321 0.795-0.717 0.93-1.188 0.129-0.467 0.037-0.937-0.276-1.411v0c-0.336-0.508-0.748-0.812-1.235-0.911-0.478-0.097-1.001-0.011-1.569 0.259z" fill="#ffffff" data-fill-palette-color="accent"></path><path d="M15.737 101.271l-0.841-0.963 4.585-4.007-0.46-0.649c-0.042-0.089-0.065-0.172-0.069-0.25-0.009-0.082 0.022-0.154 0.093-0.216v0l0.398-0.348 0.741 0.849 0.52-0.454c0.611-0.534 1.232-0.78 1.862-0.738 0.626 0.037 1.188 0.341 1.686 0.912v0c0.102 0.117 0.192 0.241 0.27 0.371 0.087 0.131 0.155 0.26 0.204 0.387v0l-0.486 0.385c-0.071 0.053-0.127 0.071-0.169 0.053-0.047-0.013-0.093-0.045-0.137-0.096v0c-0.045-0.051-0.089-0.102-0.134-0.152-0.04-0.046-0.087-0.099-0.14-0.161v0c-0.307-0.352-0.638-0.534-0.992-0.548-0.358-0.019-0.754 0.16-1.187 0.538v0l-0.489 0.427 1.362 1.559-0.695 0.608-1.329-1.521zM15.176 100.629l-0.948-1.085 0.436-0.381c0.066-0.058 0.131-0.087 0.192-0.088 0.063-0.01 0.122 0.011 0.176 0.062v0l0.877 0.649zM16.405 102.035l-0.948-1.085 0.933-0.614 0.525 0.956c0.044 0.06 0.057 0.121 0.038 0.183-0.009 0.062-0.047 0.122-0.112 0.179v0z" fill="#ffffff" data-fill-palette-color="accent"></path><path d="M20.599 106.139l-0.946-0.861 4.098-4.504-0.531-0.592c-0.052-0.084-0.084-0.164-0.097-0.24-0.018-0.081 0.005-0.156 0.068-0.226v0l0.355-0.39 0.833 0.758 0.465-0.511c0.546-0.601 1.135-0.916 1.766-0.945 0.626-0.034 1.219 0.203 1.779 0.713v0c0.115 0.105 0.219 0.217 0.311 0.338 0.101 0.12 0.184 0.24 0.246 0.362v0l-0.439 0.437c-0.064 0.061-0.118 0.085-0.161 0.072-0.048-0.007-0.097-0.034-0.148-0.079v0c-0.05-0.046-0.1-0.091-0.15-0.137-0.045-0.041-0.098-0.089-0.158-0.143v0c-0.345-0.314-0.695-0.458-1.047-0.432-0.358 0.022-0.731 0.245-1.118 0.671v0l-0.437 0.48 1.531 1.393-0.621 0.684-1.494-1.36zM19.969 105.565l-1.066-0.969 0.389-0.428c0.059-0.065 0.12-0.101 0.182-0.11 0.061-0.017 0.122-0.003 0.181 0.042v0l0.945 0.545zM21.35 106.822l-1.066-0.97 0.857-0.716 0.631 0.89c0.051 0.055 0.07 0.114 0.059 0.177-0.002 0.062-0.032 0.126-0.092 0.191v0z" fill="#ffffff" data-fill-palette-color="accent"></path><path d="M25.831 110.344l-1.013-0.746 4.245-5.771 1.014 0.745zM25.161 109.851l-1.161-0.854 0.343-0.466c0.052-0.071 0.109-0.113 0.169-0.128 0.059-0.024 0.121-0.016 0.185 0.023v0l0.997 0.443zM26.649 110.945l-1.161-0.854 0.786-0.795 0.712 0.814c0.056 0.05 0.084 0.108 0.085 0.176-0.001 0.058-0.027 0.123-0.079 0.193v0zM28.246 103.225l1.161 0.854-0.778 0.801-0.726-0.811c-0.048-0.06-0.071-0.12-0.071-0.178-0.005-0.062 0.019-0.129 0.071-0.2v0zM30.354 103.1v0c-0.191-0.14-0.303-0.336-0.337-0.587-0.043-0.25 0.006-0.47 0.146-0.662v0c0.144-0.196 0.344-0.314 0.6-0.352 0.246-0.037 0.464 0.014 0.655 0.154v0c0.196 0.144 0.316 0.341 0.359 0.592 0.033 0.251-0.022 0.475-0.167 0.671v0c-0.14 0.191-0.333 0.305-0.579 0.342-0.255 0.039-0.481-0.014-0.677-0.158z" fill="#ffffff" data-fill-palette-color="accent"></path><path d="M30.524 113.445v0c-0.292-0.171-0.6-0.395-0.924-0.671-0.324-0.276-0.589-0.541-0.794-0.794v0l0.529-0.902 0.471 0.44c0.061 0.137 0.183 0.311 0.366 0.52 0.189 0.213 0.438 0.41 0.747 0.591v0c0.461 0.27 0.859 0.374 1.194 0.312 0.331-0.057 0.579-0.225 0.743-0.506v0c0.14-0.239 0.174-0.471 0.101-0.694-0.071-0.214-0.202-0.432-0.393-0.653-0.197-0.225-0.413-0.466-0.648-0.721v0c-0.234-0.27-0.436-0.541-0.606-0.814-0.164-0.269-0.258-0.551-0.28-0.846-0.032-0.293 0.046-0.6 0.234-0.922v0c0.212-0.362 0.497-0.627 0.853-0.794 0.353-0.161 0.738-0.222 1.154-0.182 0.425 0.037 0.845 0.177 1.26 0.42v0c0.234 0.137 0.476 0.318 0.727 0.544 0.258 0.229 0.523 0.499 0.797 0.808v0l-0.431 0.736-0.596-0.467c-0.142-0.146-0.29-0.288-0.445-0.426-0.155-0.138-0.311-0.253-0.468-0.345v0c-0.239-0.14-0.472-0.225-0.698-0.255-0.222-0.036-0.428-0.019-0.617 0.05-0.18 0.067-0.32 0.185-0.419 0.354v0c-0.133 0.228-0.152 0.46-0.056 0.697 0.096 0.237 0.246 0.47 0.45 0.698 0.209 0.232 0.405 0.453 0.588 0.663v0c0.218 0.23 0.408 0.482 0.568 0.756 0.17 0.272 0.269 0.558 0.298 0.857 0.029 0.299-0.058 0.621-0.26 0.965v0c-0.212 0.362-0.499 0.637-0.86 0.825-0.364 0.179-0.767 0.252-1.21 0.22-0.444-0.033-0.902-0.187-1.375-0.464zM34.583 109.589l0.416-0.991 0.682 0.623-0.554 0.945-0.403-0.236c-0.082-0.048-0.133-0.101-0.153-0.16-0.02-0.059-0.016-0.119 0.012-0.181zM30.298 110.96l-0.411 0.982-0.696-0.619 0.559-0.955 0.403 0.236c0.093 0.055 0.146 0.113 0.157 0.175 0.015 0.056 0.01 0.116-0.012 0.181z" fill="#ffffff" data-fill-palette-color="accent"></path><path d="M42.543 118.547l-1.333-0.398 2.895-9.705 2.889 0.861c0.772 0.23 1.392 0.542 1.86 0.936 0.469 0.394 0.775 0.856 0.921 1.387 0.145 0.531 0.122 1.117-0.07 1.758v0c-0.186 0.622-0.493 1.12-0.922 1.494-0.429 0.373-0.954 0.605-1.573 0.696-0.614 0.092-1.29 0.028-2.029-0.193v0l-1.556-0.464zM45.127 109.882l-1.192 3.997 1.556 0.464c0.473 0.141 0.907 0.179 1.301 0.112 0.394-0.066 0.729-0.22 1.006-0.462 0.272-0.251 0.471-0.583 0.595-0.998v0c0.184-0.616 0.136-1.153-0.145-1.611-0.278-0.464-0.8-0.81-1.565-1.038v0zM41.619 118.271l-1.381-0.412 0.165-0.554c0.025-0.084 0.064-0.143 0.116-0.177 0.048-0.042 0.108-0.056 0.182-0.041v0l1.088 0.081zM43.133 108.154l1.381 0.411-0.462 1.017-0.955-0.528c-0.067-0.034-0.111-0.079-0.129-0.134-0.025-0.057-0.025-0.128-0.001-0.212v0zM43.515 118.837l-1.381-0.412 0.462-1.017 0.955 0.529c0.069 0.028 0.113 0.072 0.129 0.134 0.025 0.057 0.025 0.128 0.001 0.212v0z" fill="#ffffff" data-fill-palette-color="accent"></path><path d="M51.957 120.862v0c-0.376-0.05-0.702-0.165-0.978-0.345-0.282-0.188-0.492-0.434-0.629-0.739-0.144-0.306-0.188-0.663-0.133-1.072v0c0.037-0.282 0.15-0.54 0.338-0.774 0.188-0.234 0.47-0.432 0.847-0.594v0c0.368-0.149 0.839-0.25 1.412-0.304 0.575-0.06 1.262-0.047 2.063 0.039v0l0.072-0.543c0.073-0.55 0.011-0.985-0.185-1.305-0.204-0.314-0.534-0.501-0.99-0.561v0c-0.241-0.032-0.505-0.002-0.79 0.089-0.279 0.093-0.54 0.184-0.784 0.275-0.238 0.098-0.424 0.138-0.558 0.12v0c-0.08-0.011-0.148-0.044-0.202-0.098-0.054-0.055-0.097-0.119-0.128-0.192v0l-0.171-0.411c0.441-0.337 0.901-0.566 1.381-0.687 0.474-0.128 0.99-0.155 1.547-0.081v0c0.53 0.07 0.961 0.24 1.294 0.51 0.332 0.276 0.569 0.625 0.71 1.047 0.134 0.427 0.165 0.913 0.093 1.455v0l-0.603 4.538-0.543-0.073c-0.121-0.016-0.215-0.049-0.284-0.099-0.069-0.043-0.109-0.127-0.12-0.251v0l-0.052-0.683c-0.42 0.285-0.831 0.497-1.231 0.635-0.394 0.139-0.852 0.173-1.376 0.104zM52.437 120.025v0c0.423 0.056 0.803 0.021 1.14-0.105 0.338-0.126 0.67-0.317 0.998-0.574v0l0.195-1.468c-0.484-0.057-0.924-0.082-1.321-0.074-0.404 0.008-0.75 0.047-1.04 0.118-0.289 0.071-0.519 0.18-0.688 0.328-0.162 0.142-0.259 0.331-0.29 0.566v0c-0.049 0.369 0.026 0.652 0.224 0.849 0.192 0.196 0.453 0.316 0.782 0.36zM56.579 121.364l-1.428-0.19 0.296-1.077 1.016 0.371c0.08 0.017 0.133 0.055 0.159 0.113 0.034 0.052 0.045 0.122 0.034 0.209v0z" fill="#ffffff" data-fill-palette-color="accent"></path><path d="M61.246 121.352l-1.258 0.039-0.221-7.162 0.75-0.023c0.189-0.006 0.304 0.082 0.344 0.264v0l0.125 0.768c0.3-0.355 0.64-0.646 1.019-0.875 0.379-0.222 0.819-0.34 1.319-0.355v0c0.527-0.016 0.971 0.085 1.329 0.304 0.359 0.212 0.636 0.522 0.831 0.929 0.202 0.4 0.311 0.867 0.328 1.401v0l0.141 4.565-1.258 0.038-0.141-4.564c-0.017-0.534-0.154-0.946-0.414-1.236-0.26-0.297-0.643-0.437-1.15-0.422v0c-0.372 0.012-0.717 0.11-1.037 0.296-0.319 0.193-0.609 0.449-0.87 0.768v0zM60.414 121.378l-1.44 0.044-0.018-0.578c-0.003-0.088 0.015-0.156 0.055-0.205 0.032-0.055 0.085-0.087 0.159-0.096v0l1.058-0.266zM62.261 121.321l-1.441 0.044 0.128-1.11 1.062 0.2c0.075 0.004 0.133 0.033 0.176 0.086 0.035 0.046 0.054 0.113 0.057 0.202v0zM66.967 121.175l-1.44 0.045 0.118-1.111 1.072 0.201c0.075 0.004 0.13 0.033 0.165 0.086 0.042 0.046 0.064 0.113 0.067 0.201v0zM58.752 114.261l1.441-0.045-0.118 1.111-1.072-0.191c-0.075-0.018-0.13-0.05-0.166-0.096-0.042-0.046-0.064-0.113-0.067-0.201v0z" fill="#ffffff" data-fill-palette-color="accent"></path><path d="M72.515 120.347v0c-0.612 0.114-1.179 0.065-1.7-0.147-0.523-0.219-0.968-0.576-1.336-1.072-0.368-0.496-0.619-1.106-0.755-1.831v0c-0.13-0.698-0.12-1.344 0.031-1.937 0.143-0.598 0.432-1.096 0.867-1.493 0.434-0.405 1.016-0.675 1.748-0.812v0c0.286-0.053 0.628-0.066 1.026-0.037 0.396 0.022 0.781 0.071 1.152 0.146v0l0.14 0.749-0.736 0.096c-0.191-0.026-0.397-0.043-0.618-0.05-0.215-0.008-0.452 0.012-0.712 0.061v0c-0.472 0.088-0.845 0.268-1.117 0.539-0.265 0.277-0.44 0.629-0.525 1.058-0.085 0.429-0.078 0.909 0.021 1.441v0c0.152 0.811 0.449 1.427 0.892 1.847 0.443 0.42 0.994 0.568 1.653 0.445v0c0.359-0.067 0.644-0.182 0.854-0.345 0.212-0.157 0.38-0.305 0.505-0.446 0.124-0.147 0.229-0.229 0.316-0.245v0c0.047-0.009 0.092-0.007 0.135 0.006 0.044 0.013 0.085 0.032 0.125 0.059v0l0.425 0.396c-0.236 0.43-0.565 0.773-0.985 1.03-0.419 0.264-0.887 0.444-1.406 0.542zM73.102 114.92l-0.336-1.021 0.922 0.014 0.203 1.087-0.459 0.086c-0.093 0.017-0.167 0.01-0.221-0.021-0.055-0.038-0.092-0.086-0.109-0.145z" fill="#ffffff" data-fill-palette-color="accent"></path><path d="M79.591 118.469v0c-0.358 0.123-0.701 0.167-1.029 0.129-0.336-0.041-0.634-0.168-0.893-0.379-0.265-0.209-0.465-0.509-0.6-0.899v0c-0.093-0.269-0.107-0.55-0.044-0.844 0.063-0.294 0.227-0.597 0.492-0.91v0c0.262-0.298 0.638-0.599 1.127-0.904 0.487-0.311 1.107-0.607 1.862-0.889v0l-0.179-0.518c-0.181-0.524-0.431-0.886-0.749-1.083-0.323-0.189-0.702-0.209-1.137-0.059v0c-0.23 0.079-0.452 0.224-0.666 0.434-0.208 0.208-0.4 0.406-0.578 0.596-0.169 0.194-0.318 0.314-0.446 0.358v0c-0.077 0.026-0.152 0.027-0.225 0.002-0.073-0.025-0.14-0.063-0.2-0.114v0l-0.337-0.291c0.243-0.499 0.552-0.91 0.928-1.233 0.367-0.327 0.816-0.582 1.347-0.765v0c0.505-0.174 0.967-0.215 1.385-0.123 0.42 0.098 0.788 0.304 1.104 0.618 0.311 0.322 0.556 0.742 0.735 1.26v0l1.492 4.327-0.518 0.179c-0.115 0.04-0.214 0.052-0.298 0.038-0.081-0.008-0.155-0.065-0.22-0.171v0l-0.353-0.587c-0.248 0.443-0.52 0.816-0.817 1.119-0.29 0.3-0.685 0.537-1.183 0.709zM79.645 117.505v0c0.403-0.139 0.727-0.34 0.973-0.604 0.245-0.264 0.457-0.583 0.635-0.959v0l-0.483-1.401c-0.458 0.165-0.863 0.341-1.214 0.526-0.358 0.188-0.65 0.378-0.877 0.571-0.227 0.193-0.383 0.393-0.468 0.601-0.081 0.2-0.084 0.412-0.007 0.636v0c0.121 0.352 0.315 0.571 0.581 0.658 0.26 0.089 0.546 0.08 0.86-0.028zM83.949 116.848l-1.363 0.47-0.216-1.096 1.074-0.123c0.079-0.02 0.143-0.01 0.193 0.03 0.054 0.032 0.095 0.089 0.123 0.172v0z" fill="#ffffff" data-fill-palette-color="accent"></path><path d="M88.107 114.768l-1.11 0.592-4.902-9.186 1.11-0.592 2.886 5.407 0.286-0.152c0.084-0.045 0.149-0.095 0.196-0.151 0.041-0.053 0.074-0.128 0.099-0.225v0l0.849-3.214c0.031-0.101 0.065-0.188 0.102-0.262 0.037-0.074 0.11-0.139 0.218-0.196v0l1.002-0.536-1.004 3.723c-0.028 0.092-0.053 0.181-0.074 0.27-0.022 0.088-0.059 0.17-0.112 0.243v0c0.191 0.028 0.388 0.096 0.591 0.203v0l4.125 1.801-0.994 0.531c-0.096 0.051-0.18 0.073-0.252 0.065-0.082-0.01-0.175-0.033-0.279-0.069v0l-3.462-1.466c-0.102-0.061-0.193-0.089-0.275-0.083-0.072 0.008-0.171 0.045-0.297 0.112v0l-0.313 0.168zM88.263 107.817l-0.16 0.132-0.479-0.274-0.321-0.6 1.442-0.769zM90.989 111.976l0.386 1.048-1.206-0.817zM87.373 115.16l-1.271 0.678-0.273-0.51c-0.041-0.078-0.055-0.147-0.041-0.208 0.004-0.064 0.038-0.116 0.1-0.157v0l0.83-0.708zM89.003 114.29l-1.272 0.678-0.377-1.052 1.041-0.291c0.069-0.029 0.134-0.029 0.195-0.001 0.052 0.026 0.099 0.078 0.14 0.156v0zM81.199 106.652l1.272-0.679 0.386 1.048-1.05 0.296c-0.072 0.023-0.134 0.022-0.186-0.004-0.058-0.023-0.108-0.073-0.149-0.151v0zM87.599 106.918l1.271-0.679 0.273 0.51c0.041 0.078 0.058 0.145 0.05 0.203-0.014 0.061-0.048 0.118-0.104 0.171v0l-0.826 0.694zM86.319 107.601l1.271-0.679 0.387 1.048-1.046 0.305c-0.075 0.017-0.142 0.014-0.2-0.009-0.052-0.026-0.099-0.078-0.14-0.155v0zM92.647 112.345l-1.272 0.679-0.386-1.048 1.041-0.291c0.075-0.032 0.14-0.032 0.195-0.001 0.058 0.023 0.108 0.073 0.149 0.151v0z" fill="#ffffff" data-fill-palette-color="accent"></path><path d="M97.305 109.122v0c-0.548 0.408-1.121 0.641-1.719 0.698-0.598 0.057-1.183-0.06-1.755-0.351-0.571-0.292-1.089-0.749-1.554-1.374v0c-0.4-0.537-0.65-1.106-0.751-1.706-0.102-0.59-0.043-1.162 0.179-1.714 0.216-0.549 0.595-1.025 1.138-1.429v0c0.478-0.356 0.972-0.559 1.482-0.61 0.516-0.055 1.015 0.033 1.499 0.263 0.488 0.236 0.927 0.617 1.319 1.144v0c0.117 0.157 0.177 0.277 0.179 0.36 0.008 0.079-0.037 0.154-0.134 0.227v0l-3.818 2.842c0.016 0.022 0.034 0.046 0.054 0.073 0.02 0.027 0.038 0.052 0.055 0.073v0c0.511 0.607 1.055 0.969 1.632 1.088 0.579 0.109 1.139-0.039 1.682-0.443v0c0.233-0.174 0.432-0.394 0.597-0.659 0.159-0.262 0.294-0.506 0.405-0.731 0.105-0.222 0.195-0.361 0.271-0.418v0c0.087-0.065 0.174-0.083 0.262-0.056v0l0.564 0.163c-0.007 0.308-0.087 0.626-0.241 0.951-0.153 0.316-0.349 0.614-0.588 0.893-0.239 0.279-0.492 0.518-0.758 0.716zM92.929 106.813v0l3.126-2.328c-0.347-0.467-0.76-0.754-1.237-0.863-0.473-0.103-0.938 0.015-1.393 0.355v0c-0.488 0.364-0.769 0.792-0.841 1.284-0.071 0.483 0.044 1 0.345 1.552z" fill="#ffffff" data-fill-palette-color="accent"></path><path d="M106.791 99.762l-0.852 1.1-8.007-6.203 0.852-1.099 3.57 2.765 3.338-4.308-3.571-2.766 0.846-1.091 8.007 6.203-0.846 1.091-3.642-2.822-3.338 4.309zM106.2 100.525l-0.882 1.139-0.458-0.354c-0.07-0.054-0.111-0.111-0.123-0.173-0.022-0.06-0.013-0.121 0.027-0.184v0l0.468-0.986zM107.412 98.96l-0.882 1.139-0.782-0.797 0.837-0.7c0.051-0.055 0.108-0.079 0.172-0.072 0.062-0.003 0.128 0.022 0.198 0.076v0zM97.311 95.461l0.882-1.139 0.782 0.798-0.837 0.699c-0.056 0.051-0.113 0.075-0.172 0.072-0.062 0.003-0.128-0.022-0.198-0.076v0zM98.523 93.897l0.882-1.14 0.458 0.355c0.07 0.054 0.111 0.111 0.123 0.172 0.017 0.056 0.008 0.117-0.027 0.184v0l-0.468 0.986zM110.377 95.133l-0.883 1.139-0.457-0.354c-0.07-0.054-0.111-0.111-0.123-0.172-0.022-0.06-0.013-0.121 0.027-0.185v0l0.468-0.985zM111.595 93.561l-0.883 1.139-0.775-0.806 0.831-0.691c0.051-0.055 0.11-0.082 0.178-0.081 0.058 0.002 0.122 0.03 0.192 0.084v0zM101.487 90.07l0.883-1.14 0.781 0.798-0.837 0.7c-0.056 0.051-0.113 0.075-0.171 0.072-0.062 0.003-0.128-0.022-0.198-0.076v0zM102.706 88.497l0.882-1.139 0.458 0.354c0.07 0.054 0.113 0.109 0.129 0.165 0.013 0.061 0.001 0.125-0.034 0.192v0l-0.461 0.977z" fill="#ffffff" data-fill-palette-color="accent"></path><path d="M114.47 88.394v0c-0.228 0.461-0.525 0.801-0.891 1.02-0.365 0.219-0.77 0.321-1.215 0.304-0.445-0.017-0.907-0.143-1.386-0.38v0l-4.092-2.028 0.554-1.118 4.092 2.027c0.491 0.243 0.923 0.317 1.295 0.222 0.378-0.092 0.679-0.366 0.904-0.82v0c0.165-0.333 0.244-0.683 0.237-1.049-0.013-0.369-0.1-0.744-0.258-1.125v0l-4.738-2.347 0.559-1.128 6.42 3.181-0.334 0.673c-0.084 0.17-0.212 0.231-0.385 0.183v0l-0.736-0.252c0.165 0.429 0.259 0.864 0.282 1.306 0.017 0.439-0.086 0.882-0.308 1.331zM116.401 84.243l-0.639 1.292-0.92-0.637 0.678-0.842c0.039-0.064 0.092-0.102 0.159-0.114 0.057-0.009 0.126 0.006 0.204 0.045v0zM106.431 88.229l0.64-1.292 0.923 0.628-0.668 0.846c-0.054 0.064-0.11 0.1-0.168 0.11-0.06 0.015-0.13 0.004-0.209-0.036v0zM108.521 84.009l0.64-1.291 0.924 0.627-0.673 0.856c-0.051 0.058-0.107 0.094-0.168 0.11-0.057 0.009-0.126-0.006-0.204-0.045v0z" fill="#ffffff" data-fill-palette-color="accent"></path><path d="M118.183 79.585v0c-0.178 0.533-0.463 0.894-0.854 1.085-0.4 0.195-0.883 0.198-1.448 0.009v0l-4.149-1.386-0.27 0.809c-0.026 0.077-0.069 0.13-0.128 0.161-0.062 0.036-0.138 0.04-0.228 0.009v0l-0.472-0.157 0.229-1.165-1.996-0.977c-0.148-0.071-0.195-0.186-0.141-0.346v0l0.199-0.597 2.33 0.777 0.649-1.944 0.876 0.292-0.649 1.945 4.072 1.359c0.282 0.094 0.518 0.094 0.706 0 0.186-0.088 0.317-0.244 0.391-0.468v0c0.034-0.103 0.042-0.221 0.023-0.356-0.013-0.133-0.032-0.257-0.058-0.372-0.019-0.113-0.021-0.193-0.006-0.238v0c0.021-0.064 0.075-0.107 0.161-0.128v0l0.693-0.154c0.118 0.267 0.186 0.565 0.205 0.892 0.013 0.325-0.032 0.642-0.135 0.95z" fill="#ffffff" data-fill-palette-color="accent"></path><path d="M0.157 61c0-2.137 1.732-3.869 3.869-3.869 2.137 0 3.869 1.732 3.869 3.869 0 2.137-1.732 3.869-3.869 3.869-2.137 0-3.869-1.732-3.869-3.869z" fill="#ffffff" data-fill-palette-color="accent"></path><path d="M113.527 61c0-2.137 1.732-3.869 3.869-3.869 2.137 0 3.869 1.732 3.869 3.869 0 2.137-1.732 3.869-3.869 3.869-2.137 0-3.869-1.732-3.869-3.869z" fill="#ffffff" data-fill-palette-color="accent"></path></g><g id="text-1"></g></svg></g></svg></g></svg></g><defs></defs></svg><rect width="395.52" height="89.47372867334059" fill="none" stroke="none" visibility="hidden"></rect></g></svg></g></svg>